<svg xmlns="http://www.w3.org/2000/svg" width="22" height="22" viewBox="0 0 42 42">
<path d="M20.375 7.5 L17.438 7.812 L14.938 8.625 L12.625 9.75 L8.812 12.562 L5.75 15.625 L2.688 19.5 L2.438 20.75 L2.688 21.438 L5.562 25.188 L8.812 28.438 L10.938 30.188 L14.625 32.375 L17.812 33.375 L21.125 33.562 L23.125 33.312 L26.25 32.312 L31.125 29.25 L36.188 24.188 L38.25 21.375 L38.438 20.562 L38.188 19.75 L37.688 19.25 L37.188 18.25 L34.375 14.875 L32.125 12.625 L28.062 9.625 L25.938 8.625 L23.438 7.812 Z M19.938 12.688 L21 12.688 L24 13.5 L25.5 14.562 L27.312 16.688 L28.375 20.125 L28.25 21.625 L27.438 24.062 L26.188 25.75 L24.25 27.312 L22.062 28.188 L20.812 28.438 L19.812 28.438 L18.625 28.125 L16.688 27.312 L15.25 26.25 L13.562 24.188 L12.562 20.938 L12.625 19.625 L13.5 16.875 L14.75 15.188 L17.062 13.438 Z" fill="#ffffff" fill-rule="evenodd"/>
</svg>
